<svg width="187" height="192" viewBox="0 0 187 192" fill="none" xmlns="http://www.w3.org/2000/svg">
<path d="M69.6476 67.1258C90.362 73.5838 107.832 88.4651 117.489 107.877C171.626 216.708 53.8041 208.096 53.5449 148.727C53.5167 142.265 45.7639 135.661 39.3717 136.654C-19.3548 145.779 -46.4833 30.9205 69.6476 67.1258ZM66.4434 3.11723C74.5217 9.99842 72.1345 26.0459 61.1111 38.9597C50.0877 51.8734 34.6022 56.7638 26.5239 49.8827C18.4457 43.0014 20.8337 26.9545 31.8569 14.0408C42.8802 1.12698 58.365 -3.76382 66.4434 3.11723ZM181.998 101.547C190.076 108.429 187.689 124.476 176.666 137.39C165.642 150.304 150.157 155.194 142.079 148.313C134 141.432 136.388 125.385 147.412 112.471C158.435 99.5572 173.92 94.6663 181.998 101.547ZM171.004 40.4388C179.89 48.0081 177.32 65.5943 165.263 79.7188C153.206 93.8433 136.228 99.158 127.342 91.5887C118.456 84.0194 121.027 66.4325 133.084 52.308C145.14 38.1836 162.118 32.8695 171.004 40.4388ZM128.586 4.30689C137.472 11.8763 134.902 29.4625 122.845 43.5869C110.788 57.7113 93.8109 63.025 84.9247 55.4561C76.0385 47.8868 78.6087 30.3006 90.6656 16.1761C102.722 2.05156 119.7 -3.26242 128.586 4.30689Z" fill="#932E6D" fill-opacity="0.1"/>
</svg>
